<svg id="Layer_1" data-name="Layer 1"
    xmlns="http://www.w3.org/2000/svg" viewBox="0 0 1482.78 2086.86">
    <path style="fill:#bdf7fc;" d="M449,968.88c-52.9,37.5-70.43,107.08-80.94,171.07a1957.31,1957.31,0,0,0-23.85,405.38c2,44.33,7.3,92.69,38.71,124,19.81,19.79,47.25,29.7,74.1,37.62a815.54,815.54,0,0,0,163.91,30.59c8.44.7,17.31,1.18,25-2.42s13.1-10.94,17.18-18.44c10.08-18.56,14.28-39.67,18.1-60.44,35.6-193.87,49-392.75,26.44-588.58C692.53,936.67,554.29,894.25,449,968.88Z" transform="translate(-296.56 -417.37)"/>
    <path style="fill:#a5d2d6;" d="M457.4,1697.89q22.73,6.7,45.8,12.06c2.36-9.81,4.17-19.79,5.79-29.58a1896.19,1896.19,0,0,0,24.31-249.43c2.72-87.67-.52-176.58,20.24-261.8-51.87-18.72-93.66-63.29-109-116.25-10.54-36.38-4.78-63.68,4.11-92.56-52.31,37.63-69.74,106.84-80.19,170.52a1957.32,1957.32,0,0,0-23.86,405.38c2,44.33,7.31,92.69,38.71,124C403.12,1680.06,430.55,1690,457.4,1697.89Z" transform="translate(-296.56 -417.37)"/>
    <path style="fill:#bdf7fc;" d="M677.36,694.07c-79.49,143.83-102.47,322.16-117.6,494.62-20.62,235-30.38,471.45-29.23,707.81.7,143.47,15,286.87,47.42,421.17,37.1,153.78,212.27,217.54,319.42,158.28,54.42-30.09,93.31-106.68,116.56-173.79s32-140.23,38.88-212.6c48.22-3.67,98.26-36,144.77-52-9.54,106.58,11.07,459.78,229.58,459.78,131.57,0,168.18-161.68,180.85-207.85,21.46-78.19,29.45-160.8,36.17-242.85,10-122.65,55.12-1079.46-114.55-1338.08-33.32-50.78-66.06-102.26-110.5-137.27-96.77-76.26-262.31-100.58-377.68-100.57C900.53,470.73,756.88,550.18,677.36,694.07Z" transform="translate(-296.56 -417.37)"/>
    <path style="fill:#a5d2d6;" d="M1644.18,2022.52c3.92-47.83,13.41-11.85,13.16-222.5-20.92,20.9-278.5,51.93-552.78-89.41a607.22,607.22,0,0,1-184.11-146.78c-80.17-94.37-137.68-206.9-171.06-325.95-59-210.59-45-447.83,52.42-645.14,9.87-20,45.25-65.66,51.43-97.9-70.41,37.73-132.64,96.86-175.88,175.1-79.49,143.84-102.47,322.17-117.6,494.63-20.62,235-30.38,471.45-29.23,707.81.7,143.47,15,286.87,47.42,421.17,37.1,153.78,212.27,217.54,319.42,158.28,54.42-30.09,93.31-106.68,116.56-173.8s32-140.22,38.88-212.59c48.22-3.67,98.26-36,144.77-52-9.54,106.58,11.07,459.78,229.58,459.78,131.57,0,168.19-161.69,180.85-207.85C1629.47,2187.18,1637.46,2104.56,1644.18,2022.52Z" transform="translate(-296.56 -417.37)"/>
    <path style="fill:#221f20;" d="M1019.13,2064.11c-3.32,12.1-29.47,6.36-31.55,18.85-2.29,13.75,0,128.51-36.4,239-4.21,12.77-18,66.82-119.09,102.81-47.36,10.35-138.4-16.65-200-124.64-2.73-4.79-19.76-48.44-23.12-61.51-3.14-12.17-5.72-24.48-7.93-36.85-1.2-6.79-4-25-4.25-27.26,1.23,11.62-6.32-63.24-8.67-92-10.06-122.95-16-246.28-16.3-369.65-.27-124.5,5.28-249.08,18.53-372.9,1.6-14.91,9.58-79.32,8.28-69.66.72-5.39,11.09-75.4,16.25-104.89Q631.08,1073,654,982q22.56-89,52.18-175.93c10.1-29.55,20.73-58.94,32.21-88,1.46-3.69,11.13-26,14.69-33.14,6.82-13.63,14.89-26.21,23.34-38.87,4.08-6.11-6.42,7.11,1.51-1.86,2.53-2.86,40.91-38.81,41.79-39.45q4.65-3.37,9.42-6.61a572.94,572.94,0,0,1,77-43.77c5.83-2.77,11.71-5.4,17.61-8,11.7-5.21,126.18-36.33,130-36.92,2.15-.34,13.56-1.84,3.63-.61,29.22-3.64,114.89-1.32,118.69-.94,1.25.13,31,5.27,44.39,8.66q17,4.29,33.55,9.95,8.68,3,17.24,6.28c3.09,1.21,6.27,2.35,9.29,3.74-10.24-4.71.2.18,1.77.89,23.27,10.51,86.84,52.65,89.44,54.84,10.13,8.53,81.79,98.31,87.2,109.17,1.48,3,31.68,95.74,36.86,126.33,1.13,6.7,93.06,30.39,95.19,40.57-.82-3.93-6.71-49.62-10-68.25-5.66-31.86-13.17-63.5-24.34-93.91-20.92-57-52.82-108.47-95.75-151.6-82.52-82.92-195.44-129.56-311.53-136.36-125.93-7.37-256.67,32.55-361.1,102.36-27.34,18.29-53.66,39.19-74.48,64.83-23.43,28.86-39.44,60.6-53.63,94.76-24.93,60-45.66,122.06-64.21,184.34-74.66,250.66-105.74,513.3-109.86,774.28-2.08,131.62,2.73,263.3,12.42,394.57,4.54,61.5,8.61,123.51,18.82,184.39,9.76,58.24,34,111.25,65.58,161.79,92.43,148,224.66,123.55,258.37,122.57,38.16-1.11,70.78-16.28,99.44-40.72,44.26-37.73,77.47-93.45,94.67-148.63,9-28.91,15-58.48,16.37-88.78.5-11.26,1.31-22.49,2.25-33.72,1.34-16.06-.6-31.38-1.66-47.33-.85-12.84-2.88-25.5-4.41-38.37-1.62-13.69-6.94-27.26-11.21-40.47-2.7-8.37-15.12-9-17.57,0Z" transform="translate(-296.56 -417.37)"/>
    <path style="fill:#221f20;" d="M1323.35,1920.91c-26.33,12-49.73,30.24-74.81,44.63-22,12.62-120.16,50-144.59,59.57-12.39,4.84-104.34,26.4-112.26,39.15-3.23,5.21-10.62,26.7-.71,50.19,11,26.14,43.45,38.11,68.53,23.1,12.89-7.7,26.86-13.29,39.79-21q18-10.73,36.38-20.78c115.29-63.35,173.15-148.6,190.83-171.71,1.56-2-1.34-4-3.16-3.15Z" transform="translate(-296.56 -417.37)"/>
    <path style="fill:#221f20;" d="M1195.55,2024.14c-3.11,71.22-6.28,142.68-2,213.92,3.82,64.31,20.94,125.17,61.13,176.41,36.73,46.83,99.81,90.84,160,89.74,58.82-1.07,105.52-19.4,159.87-70.55,46.18-43.47,64.3-112.58,80.18-173.37,17.22-65.93,18.78-133.79,23.24-201.35,4.93-74.65,13.41-817.45,3.54-891.11-2.92-21.77-94,50.5-92.92,60.62q5.78,52,9.4,104.26c5,71.1,4.79,142.59,6.44,213.83.81,35,4.34,175,5.53,210s2.25,70,3.32,104.92c1.12,36.5,3.62,72.94,4.63,109.43,1.81,65.42,4.26,130.75-1.7,196-5.4,59.12-18.57,120.36-50.42,171.27-25.69,41.06-66.09,76.55-111.85,92.38-48.6,16.81-95.92,9.73-138.29-21.21-49.88-36.42-62.57-95-76.82-153.12-8.89-36.26-2.75-206.39-6.4-246.19-.36-4-36.7,10-36.88,14.13Z" transform="translate(-296.56 -417.37)"/>
    <path style="fill:#8de1ff;" d="M1184.08,884.45c-25.65,13.55-51,28.17-72.67,47.49-22.12,19.75-39.86,44-54.57,69.78a401.53,401.53,0,0,0-52.41,207.85c.27,10.85,1.16,22.25,7.17,31.28,4.48,6.74,11.38,11.46,18.46,15.38,35.8,19.85,78.31,22.58,119.23,23.87,147.54,4.65,295.27-3.64,442.13-18.58,42.56-4.33,90.49-12.34,114.49-47.76,15-22.14,17-50.35,17.55-77.09a1055.23,1055.23,0,0,0-8.67-157.21c-6-45.8-15.54-92.62-41.37-130.91-53-78.53-144-68.87-227.9-55.58C1353.85,807.5,1265.89,841.25,1184.08,884.45Z" transform="translate(-296.56 -417.37)"/>
    <path style="fill:#221f20;" d="M594.85,919.65c-28.64-7.57-62.91-4.76-92-.39-30,4.48-59.61,18.37-80.5,40.67-25.86,27.61-38.36,66.92-50.51,102a1014.21,1014.21,0,0,0-32.2,115.21c-8.73,39.93-14.46,80.17-20.56,120.54-6,39.93-11.7,79.89-15.83,120.07-3.86,37.56-7.23,75.35-6.57,113.17,2.11,122,35.07,154.74,38,157.81,59.43,63.15,99.76,79.12,120.25,82.2,27.07,4.07,53.13,4.49,79.7-3.72,40.25-12.44,31.81-58.47,15.13-98-7.43-17.59,10.87-26.78-6.72-34.2-21.69-9.15-57.11,1.44-51.54-.91-7.57,3.07-41.83,1.41-53.34-3-68-26.12-71.42-137.38-71.77-146.41-1.3-33.33-.55-66.73-.29-100.07.54-67.19,4.76-133.76,15.79-200.11a949.19,949.19,0,0,1,22.08-100.89c8.44-30,16.36-63.16,33.15-89.78,38.86-61.6,146.38-35,160.72-39.34,3.78-1.15,1.07-33.77-2.91-34.82Z" transform="translate(-296.56 -417.37)"/>
    <path style="fill:#221f20;" d="M1017,1250.73a.34.34,0,0,0,0-.67.34.34,0,0,0,0,.67Z" transform="translate(-296.56 -417.37)"/>
    <path style="fill:#71bcff;" d="M1293.48,1093.21c-45.36-12.28-88.72-39.16-110.92-80.59s-2.88-74.57-5.66-116.06c-17.93,10.29-35.23,21.63-50.63,35.38-22.12,19.75-39.86,44-54.57,69.78a401.53,401.53,0,0,0-52.41,207.85c.27,10.85,1.16,22.25,7.17,31.28,4.48,6.74,11.38,11.46,18.46,15.38,35.8,19.85,78.31,22.58,119.23,23.87,147.54,4.65,295.27-3.64,442.12-18.58,42.57-4.33,90.5-12.34,114.5-47.76,15-22.14,17-50.35,17.55-77.09q.57-29.25-.48-58.51-151.46,19.59-304.28,25.08C1386.59,1104.91,1338.84,1105.49,1293.48,1093.21Z" transform="translate(-296.56 -417.37)"/>
    <path style="fill:#221f20;" d="M1776.46,1074.68c-9-75.54-26.42-155.68-74-217-20.49-26.4-45.17-48.17-76.08-61.54s-63.61-19.4-97.21-20.52c-64.08-2.13-129,11.72-191.08,26.27-65.38,15.33-131,36.42-188.76,71.31-57.08,34.46-105.45,82.84-135.71,142.6A339.06,339.06,0,0,0,982,1109.54a240.54,240.54,0,0,0-3.48,50.91c.31,8.9.71,68.6,14.44,85,.31.38.62.72.93,1.08a13.18,13.18,0,0,0,1.08,3.5c21.68,45,184.49,64.37,265.29,71.29,77.12,6.61,156.11.51,233.15-6.06,41-3.49,81.94-8.59,122.63-15,5.33-.84,1.78-.33,7.14-1,6.81-.86,13.6-1.8,20.4-2.74,8.89-1.22,17.78-2.48,26.54-4.45a133.9,133.9,0,0,0,54.77-26.1C1779.7,1222.36,1784.05,1138.59,1776.46,1074.68Zm-83.83,98.53s.39-2.4.6-3.7C1693.1,1171.71,1692.91,1173,1692.63,1173.21Zm.62-4c0,.26-.13.63-.23,1.19-.3,1.56-5.16,20.73-6,24.19-1,4.08-.54,1.65-1.5,3.41a77.75,77.75,0,0,1-4.94,7.51c3.2-4.53-5.5,4-4.79,4.21-7.54,3.41-42.15,14.18-49.74,15.36-16.86,2.63-30.44,3.88-49.55,5.38q-26.58,2.08-53.23,3.28c-72.59,3.24-292.53,6.47-433.61-16.92-34.47-5.72-57-20.84-53-56.25q1-6,2.15-12l0-.17c4.35-23,10-46,18-67.9,1.18-3.22,11.87-27.84,15.29-34.42a317,317,0,0,1,22.21-36.49c5.46-7.73,20.25-24.81,25.44-30.11a337.45,337.45,0,0,1,31.15-28c46.49-35.77,100.26-57.3,157.25-73.67,29.61-8.51,59.67-15.39,89.85-21.53,14-2.86,28.09-5.61,42.22-8,3.32-.55,19.06-2.93,17.36-2.69,2.75-.38,49.1-4.13,63.18-3.88,6.65.12,13.31.43,19.94,1,3.28.27,42.53,7.85,55.37,13,3.62,1.45,17.32,9.3,20,11,1.37.89,15.78,12.48,20.7,17.72,6,6.39,5.92,6.44,10.72,14.54a191,191,0,0,1,9.23,17.73c.12.44,2,5.09,2.43,6.13,1.43,3.95,28.6,128.54,28.81,130.4,1,9.28,1.67,18.59,2.56,27.89C1692,1096.17,1694.12,1153.4,1693.25,1169.16Z" transform="translate(-296.56 -417.37)"/>
    <path style="fill:#fff;opacity:0.65" d="M1473.36,873.89c-49.41,8.79-99.24,19.05-144.24,41.24-9.25,4.56-18.51,9.82-24.88,17.93s-9.27,19.7-4.67,28.93c5.11,10.26,17.5,14.59,28.9,15.79,32.14,3.39,63.28-10.07,94.29-19.15a358,358,0,0,1,145-11.55c15.49,1.95,33.69,4,44.36-7.37,9.08-9.72,7.95-26,.34-36.9s-20.14-17.36-32.75-21.63C1546.63,870,1507.46,867.83,1473.36,873.89Z" transform="translate(-296.56 -417.37)"/>
    <path style="fill:#fff;opacity:0.29" d="M1083,626.54c10.92,8.07,25.42,8.54,38.84,10.61a146.11,146.11,0,0,1,87.89,48.94c18.54,21.67,31.34,49.43,55.76,64.18,11.58,7,25,10.47,38.34,12.53,22.08,3.41,47.73,1.91,62.34-15,10.45-12.08,12.62-29.78,8.66-45.25s-13.31-29-23.79-41.09c-47.69-54.87-119.69-83.22-191.43-94.94-23.72-3.87-51.66-6.32-73.41,6.16C1066.9,583.73,1064.42,612.84,1083,626.54Z" transform="translate(-296.56 -417.37)"/>
    <path style="fill:#fff;opacity:0.29" d="M954.29,572.22c-10.81,3.9-20.87,11.46-25,22.17a11.52,11.52,0,0,0-1,5.65c.37,2.79,2.35,5.07,4.4,7,10.56,9.91,25.24,14.71,39.71,15.12s28.81-3.3,42.27-8.63c6.94-2.75,13.87-6.06,19.05-11.42s8.36-13.19,6.47-20.41c-1.71-6.5-7.12-11.41-13-14.72a47.25,47.25,0,0,0-37.54-4C978.23,566.41,965.68,568.12,954.29,572.22Z" transform="translate(-296.56 -417.37)"/>
</svg>